<svg xmlns="http://www.w3.org/2000/svg" viewBox="0 0 210.3 227.22"><defs><style>.cls-1{fill:#fbf5ef;}</style></defs><g id="Layer_2" data-name="Layer 2"><g id="Capa_1" data-name="Capa 1"><circle class="cls-1" cx="42.04" cy="113.61" r="37.5"/><circle class="cls-1" cx="167.44" cy="42.87" r="37.5"/><circle class="cls-1" cx="167.44" cy="184.35" r="37.5"/><path d="M167.44,141.48a42.8,42.8,0,0,0-33,15.51L83.27,127.93a42.91,42.91,0,0,0,0-28.64l51.19-29.07a42.83,42.83,0,1,0-7.42-13L75.85,86.26a42.87,42.87,0,1,0,0,54.7L127,170a42.86,42.86,0,1,0,40.4-28.55Zm0-126.48a27.87,27.87,0,1,1-27.87,27.86A27.89,27.89,0,0,1,167.44,15ZM42.87,141.48a27.87,27.87,0,1,1,27.87-27.87A27.91,27.91,0,0,1,42.87,141.48Zm124.57,70.74a27.87,27.87,0,1,1,27.86-27.87A27.91,27.91,0,0,1,167.44,212.22Z"/></g></g></svg>