<svg xmlns="http://www.w3.org/2000/svg" viewBox="0 0 403.49 119.4"><defs><style>.cls-1{fill:#fbf5ef;stroke:#463438;stroke-miterlimit:10;stroke-width:2px;}</style></defs><g id="Layer_2" data-name="Layer 2"><g id="Layer_1-2" data-name="Layer 1"><path class="cls-1" d="M258.91,5.46a5,5,0,0,1,1.58-3.23A5.1,5.1,0,0,1,264.08,1h27.13a3.93,3.93,0,0,1,3.27,1.23,4.09,4.09,0,0,1,.81,2.57q0,.32,0,.66a3.83,3.83,0,0,1-1.72,2.68,5.81,5.81,0,0,1-3.38,1h-4.32L281,49a11.27,11.27,0,0,1-2.36,6A5.06,5.06,0,0,1,274.73,57h-8a3.94,3.94,0,0,1-3.48-1.93,6.82,6.82,0,0,1-.88-3.73,16.68,16.68,0,0,1,.18-2.32l4.92-39.83h-4.33a4.88,4.88,0,0,1-3.16-1,2.76,2.76,0,0,1-1.12-2.22A3.44,3.44,0,0,1,258.91,5.46Z"/><path class="cls-1" d="M295.26,49l4.87-40a11.16,11.16,0,0,1,2.14-5.84,5.06,5.06,0,0,1,4-2.14h8q2.25,0,3.45,3.59a22.26,22.26,0,0,1,.88,6.6q0,1.47-.15,3.18l-4.29,34.71a10.88,10.88,0,0,1-2.42,6A5.31,5.31,0,0,1,307.8,57h-8.26A4.08,4.08,0,0,1,296,55.07a6.46,6.46,0,0,1-.87-3.62A18.31,18.31,0,0,1,295.26,49Z"/><path class="cls-1" d="M318.68,49l4.87-40a10.86,10.86,0,0,1,2.18-5.79A5.18,5.18,0,0,1,329.84,1h26.42a3.82,3.82,0,0,1,3.5,2.15,8,8,0,0,1,.86,3.94,18.65,18.65,0,0,1-.11,1.9l-4.88,40a11.21,11.21,0,0,1-2.37,6A5.09,5.09,0,0,1,349.41,57h-2.12a4,4,0,0,1-3.49-1.93,6.79,6.79,0,0,1-.89-3.73,16.44,16.44,0,0,1,.18-2.31L348,9.12h-5.56L337.56,49a11.13,11.13,0,0,1-2.43,6A5.25,5.25,0,0,1,331.19,57H323a4.1,4.1,0,0,1-3.58-1.94,6.57,6.57,0,0,1-.87-3.65A18.46,18.46,0,0,1,318.68,49Z"/><path class="cls-1" d="M361.14,49l.85-7.13a11.14,11.14,0,0,1,2.18-5.84,5,5,0,0,1,3.94-2.14h18.73L388,24.45H369.27a3.84,3.84,0,0,1-3.45-1.93,7.18,7.18,0,0,1-.88-3.84,19.86,19.86,0,0,1,.14-2.21L366,9a11.16,11.16,0,0,1,2.15-5.84,5.08,5.08,0,0,1,4-2.14h8a3.76,3.76,0,0,1,3.44,2.14,8,8,0,0,1,.85,3.94,18.65,18.65,0,0,1-.11,1.9l-1.16,9.28h5.55L389.92,9a11.16,11.16,0,0,1,2.14-5.84A5.08,5.08,0,0,1,396.11,1h2.08a3.76,3.76,0,0,1,3.45,2.14,8,8,0,0,1,.85,3.94A10.92,10.92,0,0,1,402.31,9L397.44,49a11.54,11.54,0,0,1-2.27,6A5,5,0,0,1,391.28,57h-26a4,4,0,0,1-3.41-1.93,6.59,6.59,0,0,1-.91-3.76A17.42,17.42,0,0,1,361.14,49Z"/><path class="cls-1" d="M1.18,110.42l4.88-40a11.16,11.16,0,0,1,2.15-5.84,5.09,5.09,0,0,1,4-2.14H38.83a3.89,3.89,0,0,1,3.23,1.23,4.09,4.09,0,0,1,.81,2.57c0,.21,0,.43,0,.67a3.83,3.83,0,0,1-1.72,2.67,5.78,5.78,0,0,1-3.37,1H24.45L21.37,95.31H34.14a3.75,3.75,0,0,1,3.43,2.15,8.57,8.57,0,0,1,.91,4,13.54,13.54,0,0,1-.14,1.83l-.85,7.14a11.24,11.24,0,0,1-2.35,6,5.05,5.05,0,0,1-3.83,1.93h-26a4,4,0,0,1-3.48-1.93A6.64,6.64,0,0,1,1,112.85,18.32,18.32,0,0,1,1.18,110.42Z"/><path class="cls-1" d="M43.14,110.43,48,70.38a11.12,11.12,0,0,1,2.14-5.83,5.09,5.09,0,0,1,4-2.15h26a3.75,3.75,0,0,1,3.45,2.15,8,8,0,0,1,.85,3.94,18.65,18.65,0,0,1-.11,1.9l-4.89,40a11.16,11.16,0,0,1-2.36,6,5.07,5.07,0,0,1-3.83,1.93H47.29a3.94,3.94,0,0,1-3.48-1.93,6.55,6.55,0,0,1-.85-3.62A18.18,18.18,0,0,1,43.14,110.43ZM63.26,95.31h5.56l3.09-24.79H66.36Z"/><path class="cls-1" d="M85.06,110.42l4.89-40a11.16,11.16,0,0,1,2.14-5.84,5.11,5.11,0,0,1,4-2.14h8a3.77,3.77,0,0,1,3.45,2.15,8.05,8.05,0,0,1,.84,3.94,18.32,18.32,0,0,1-.1,1.89l-3.08,24.93h5.51l3.09-24.93A11.16,11.16,0,0,1,116,64.54a5.07,5.07,0,0,1,4-2.14h2.07a3.78,3.78,0,0,1,3.43,2.11,8,8,0,0,1,.85,3.9,18.82,18.82,0,0,1-.11,1.9l-4.87,40.11a11.27,11.27,0,0,1-2.36,6,5,5,0,0,1-3.83,1.93h-26a3.93,3.93,0,0,1-3.47-1.93,6.55,6.55,0,0,1-.85-3.62A18.32,18.32,0,0,1,85.06,110.42Z"/><path class="cls-1" d="M126.48,110.37l4.86-40.05a11,11,0,0,1,2.18-5.79,5.2,5.2,0,0,1,4.11-2.13h26.43a3.83,3.83,0,0,1,3.5,2.15,8,8,0,0,1,.86,3.94,18.65,18.65,0,0,1-.11,1.9l-4.89,40a11.16,11.16,0,0,1-2.36,6,5.11,5.11,0,0,1-3.85,1.93h-2.12a4,4,0,0,1-3.5-1.93,6.78,6.78,0,0,1-.88-3.72,16.46,16.46,0,0,1,.18-2.32l4.9-39.91h-5.55l-4.89,39.9a11.05,11.05,0,0,1-2.42,6A5.25,5.25,0,0,1,139,118.4h-8.25a4.09,4.09,0,0,1-3.58-1.94,6.66,6.66,0,0,1-.86-3.65A18.46,18.46,0,0,1,126.48,110.37Z"/><path class="cls-1" d="M174,66.87a5,5,0,0,1,1.58-3.24,5.1,5.1,0,0,1,3.59-1.23h27.13a3.93,3.93,0,0,1,3.27,1.23,4.09,4.09,0,0,1,.81,2.57c0,.21,0,.43,0,.67a3.81,3.81,0,0,1-1.73,2.67,5.75,5.75,0,0,1-3.37,1h-4.33L196,110.42a11.27,11.27,0,0,1-2.36,6,5.08,5.08,0,0,1-3.86,1.93h-8a3.94,3.94,0,0,1-3.48-1.93,6.82,6.82,0,0,1-.88-3.73,18.24,18.24,0,0,1,.17-2.32l4.93-39.83h-4.33a4.88,4.88,0,0,1-3.16-1,2.78,2.78,0,0,1-1.13-2.22A3.14,3.14,0,0,1,174,66.87Z"/><path class="cls-1" d="M210.09,112.08l5.34-43.35q.42-3.45,2-4.89a5.67,5.67,0,0,1,3.9-1.44h26.07a3.77,3.77,0,0,1,3.45,2.15,8,8,0,0,1,.85,3.94,18.82,18.82,0,0,1-.11,1.9L248,99.6a10,10,0,0,1-1.09,3,39.58,39.58,0,0,1-2.35,3.94c-.94,1.4-2,2.81-3.07,4.21q-1.44,1.83-3.2,3.8a25.37,25.37,0,0,1-2.85,2.78,4.22,4.22,0,0,1-1.94,1.08H214.41a4.48,4.48,0,0,1-3.48-1.37,4.77,4.77,0,0,1-1-3.3A14.7,14.7,0,0,1,210.09,112.08Zm20.38-16.77h5.62l3.09-24.79h-5.62Z"/><path class="cls-1" d="M252.28,110.43l4.89-40.05a11.13,11.13,0,0,1,2.15-5.83,5.09,5.09,0,0,1,4.05-2.15h26a3.77,3.77,0,0,1,3.45,2.15,8.08,8.08,0,0,1,.84,3.94,18.5,18.5,0,0,1-.1,1.9l-4.89,40a11.32,11.32,0,0,1-2.36,6,5.07,5.07,0,0,1-3.84,1.93H256.44a4,4,0,0,1-3.49-1.93,6.64,6.64,0,0,1-.84-3.62A19.88,19.88,0,0,1,252.28,110.43ZM272.4,95.31H278l3.09-24.79H275.5Z"/><path class="cls-1" d="M294.2,110.42l4.89-40a11.16,11.16,0,0,1,2.15-5.84,5.11,5.11,0,0,1,4.05-2.14h8a3.77,3.77,0,0,1,3.45,2.15,7.94,7.94,0,0,1,.85,3.94,18.47,18.47,0,0,1-.11,1.89l-3.08,24.93h5.51L323,70.38a11.24,11.24,0,0,1,2.13-5.84,5.05,5.05,0,0,1,4-2.14h2.06a3.79,3.79,0,0,1,3.43,2.11,7.94,7.94,0,0,1,.84,3.9,18.63,18.63,0,0,1-.11,1.89l-3.07,25h5.6L341,70.38a11.24,11.24,0,0,1,2.13-5.84,5.09,5.09,0,0,1,4-2.14h2.06a3.8,3.8,0,0,1,3.44,2.11,8,8,0,0,1,.84,3.9,18.82,18.82,0,0,1-.11,1.9l-4.87,40.11a11.27,11.27,0,0,1-2.35,6,5.07,5.07,0,0,1-3.83,1.93h-44a3.94,3.94,0,0,1-3.48-1.93,6.64,6.64,0,0,1-.84-3.62A20,20,0,0,1,294.2,110.42Z"/><path class="cls-1" d="M353.62,110.37l4.87-40.05a10.86,10.86,0,0,1,2.18-5.79,5.2,5.2,0,0,1,4.11-2.13H391.2a3.85,3.85,0,0,1,3.51,2.15,8,8,0,0,1,.85,3.94,18.5,18.5,0,0,1-.1,1.9l-4.89,40a11.24,11.24,0,0,1-2.37,6,5.08,5.08,0,0,1-3.85,1.93h-2.12a4,4,0,0,1-3.49-1.93,6.78,6.78,0,0,1-.88-3.72,16.36,16.36,0,0,1,.17-2.32l4.91-39.91h-5.56l-4.88,39.9a11.13,11.13,0,0,1-2.43,6,5.25,5.25,0,0,1-3.94,1.93h-8.24a4.08,4.08,0,0,1-3.58-1.94,6.57,6.57,0,0,1-.86-3.65A18.34,18.34,0,0,1,353.62,110.37Z"/></g></g></svg>